<svg width="51" height="51" viewBox="0 0 51 51" fill="none" xmlns="http://www.w3.org/2000/svg">
<g clip-path="url(#clip0_3_1143)">
<path fill-rule="evenodd" clip-rule="evenodd" d="M16.2002 30.4417L0.5 15.0605V9.87285L19.1906 28.4024C21.8311 30.5594 19.079 34.0552 16.2002 30.4417ZM39.109 26.7233C43.3668 19.4727 47.254 9.83691 49.541 0.5H43.7203C42.558 11.3975 39.848 17.8286 37.7213 27.2545C37.0541 27.3503 36.3767 27.3503 35.7096 27.2545C33.5826 17.8287 30.8728 11.3975 29.7105 0.5H23.8896C26.1767 9.83691 30.0639 19.4727 34.3217 26.7232C28.8223 22.1336 20.6748 6.81143 19.2039 0.5H17.0589C18.7452 7.35977 27.2365 19.9395 32.154 26.2449C24.6587 18.5871 17.8745 8.61426 15.3652 0.5H0.5V5.82334L23.4684 28.5278L31.31 43.3633C34.3867 49.6519 26.8672 45.2248 13.7983 37.9064L0.5 24.7895V50.5H50.5V14.9799C47.5 19.4421 44.8527 22.3419 41.2768 26.245C43.8656 22.9255 47.4445 17.8671 50.5 12.8198V9.85283C47.1371 16.5577 42.5153 24.0306 39.109 26.7233ZM41.7472 30.5337L32.0165 30.5396L33.3573 36.4102L40.443 36.434L41.7472 30.5336V30.5337Z" fill="#3BA439"/>
</g>
<defs>
<clipPath id="clip0_3_1143">
<rect width="50" height="50" fill="white" transform="translate(0.5 0.5)"/>
</clipPath>
</defs>
</svg>
