<svg width="25" height="26" viewBox="0 0 25 26" fill="none" xmlns="http://www.w3.org/2000/svg">
<path d="M7.22502 0.481934H17.6492C21.6204 0.481934 24.8469 3.70848 24.8469 7.67961V18.1038C24.8469 20.0128 24.0886 21.8435 22.7388 23.1933C21.3889 24.5432 19.5582 25.3015 17.6492 25.3015H7.22502C3.25389 25.3015 0.0273438 22.0749 0.0273438 18.1038V7.67961C0.0273438 5.77066 0.785668 3.93991 2.13549 2.59008C3.48532 1.24026 5.31607 0.481934 7.22502 0.481934ZM6.97682 2.96389C5.79196 2.96389 4.65563 3.43457 3.81781 4.2724C2.97998 5.11022 2.5093 6.24655 2.5093 7.43141V18.352C2.5093 20.8216 4.50727 22.8195 6.97682 22.8195H17.8974C19.0823 22.8195 20.2186 22.3489 21.0564 21.511C21.8943 20.6732 22.3649 19.5369 22.3649 18.352V7.43141C22.3649 4.96186 20.367 2.96389 17.8974 2.96389H6.97682ZM18.9523 4.82536C19.3637 4.82536 19.7582 4.98879 20.0491 5.2797C20.34 5.57061 20.5035 5.96517 20.5035 6.37658C20.5035 6.78799 20.34 7.18255 20.0491 7.47346C19.7582 7.76437 19.3637 7.9278 18.9523 7.9278C18.5408 7.9278 18.1463 7.76437 17.8554 7.47346C17.5645 7.18255 17.401 6.78799 17.401 6.37658C17.401 5.96517 17.5645 5.57061 17.8554 5.2797C18.1463 4.98879 18.5408 4.82536 18.9523 4.82536ZM12.4371 6.68682C14.0828 6.68682 15.661 7.34055 16.8246 8.50419C17.9883 9.66783 18.642 11.2461 18.642 12.8917C18.642 14.5373 17.9883 16.1156 16.8246 17.2792C15.661 18.4429 14.0828 19.0966 12.4371 19.0966C10.7915 19.0966 9.21324 18.4429 8.0496 17.2792C6.88596 16.1156 6.23223 14.5373 6.23223 12.8917C6.23223 11.2461 6.88596 9.66783 8.0496 8.50419C9.21324 7.34055 10.7915 6.68682 12.4371 6.68682ZM12.4371 9.16878C11.4497 9.16878 10.5028 9.56101 9.80461 10.2592C9.10642 10.9574 8.71419 11.9043 8.71419 12.8917C8.71419 13.8791 9.10642 14.826 9.80461 15.5242C10.5028 16.2224 11.4497 16.6146 12.4371 16.6146C13.4245 16.6146 14.3714 16.2224 15.0696 15.5242C15.7678 14.826 16.1601 13.8791 16.1601 12.8917C16.1601 11.9043 15.7678 10.9574 15.0696 10.2592C14.3714 9.56101 13.4245 9.16878 12.4371 9.16878Z" fill="black"/>
</svg>
