<svg width="435" height="320" viewBox="0 0 435 320" fill="none" xmlns="http://www.w3.org/2000/svg">
<path d="M167.436 89.7606C167.436 96.6816 165.814 103.008 162.569 108.739C159.433 114.363 154.621 118.905 148.132 122.365C141.752 125.717 133.912 127.394 124.612 127.394H108.877V166H77.0838V51.6409H124.612C133.804 51.6409 141.59 53.263 147.97 56.5072C154.459 59.7514 159.325 64.2393 162.569 69.9708C165.814 75.7022 167.436 82.2988 167.436 89.7606ZM121.53 102.089C130.506 102.089 134.993 97.9793 134.993 89.7606C134.993 81.4337 130.506 77.2703 121.53 77.2703H108.877V102.089H121.53ZM222.546 167.135C213.462 167.135 205.297 165.243 198.052 161.458C190.915 157.673 185.291 152.266 181.182 145.237C177.072 138.208 175.018 129.935 175.018 120.419C175.018 111.01 177.072 102.792 181.182 95.7624C185.399 88.7332 191.077 83.3262 198.214 79.5412C205.459 75.7563 213.624 73.8638 222.708 73.8638C231.792 73.8638 239.902 75.7563 247.04 79.5412C254.285 83.3262 259.963 88.7332 264.072 95.7624C268.289 102.792 270.398 111.01 270.398 120.419C270.398 129.827 268.289 138.1 264.072 145.237C259.963 152.266 254.285 157.673 247.04 161.458C239.794 165.243 231.63 167.135 222.546 167.135ZM222.546 139.56C226.98 139.56 230.656 137.937 233.576 134.693C236.604 131.341 238.118 126.583 238.118 120.419C238.118 114.255 236.604 109.55 233.576 106.306C230.656 103.062 227.034 101.44 222.708 101.44C218.382 101.44 214.76 103.062 211.84 106.306C208.92 109.55 207.46 114.255 207.46 120.419C207.46 126.691 208.866 131.449 211.678 134.693C214.489 137.937 218.112 139.56 222.546 139.56ZM315.127 91.0583C318.695 85.8675 323.021 81.7581 328.104 78.7302C333.186 75.7022 338.647 74.1883 344.487 74.1883V108.09H335.565C328.644 108.09 323.508 109.442 320.155 112.146C316.803 114.849 315.127 119.553 315.127 126.258V166H283.333V74.9993H315.127V91.0583ZM409.577 138.911V166H395.789C372.539 166 360.913 154.483 360.913 131.449V101.44H349.721V74.9993H360.913V52.9386H392.869V74.9993H409.415V101.44H392.869V131.936C392.869 134.423 393.41 136.207 394.491 137.289C395.681 138.37 397.627 138.911 400.331 138.911H409.577ZM126.234 241.44H111.959V306H80.0037V241.44H70.1087V214.999H80.0037V214.188C80.0037 202.509 83.4101 193.587 90.223 187.423C97.144 181.151 107.039 178.015 119.908 178.015C122.503 178.015 124.504 178.069 125.91 178.177V205.267C125.044 205.158 123.855 205.104 122.341 205.104C118.88 205.104 116.339 205.915 114.717 207.538C113.095 209.052 112.176 211.539 111.959 214.999H126.234V241.44ZM179.934 307.135C170.85 307.135 162.685 305.243 155.44 301.458C148.302 297.673 142.679 292.266 138.57 285.237C134.46 278.208 132.406 269.935 132.406 260.419C132.406 251.01 134.46 242.792 138.57 235.762C142.787 228.733 148.465 223.326 155.602 219.541C162.847 215.756 171.012 213.864 180.096 213.864C189.18 213.864 197.29 215.756 204.428 219.541C211.673 223.326 217.35 228.733 221.46 235.762C225.677 242.792 227.786 251.01 227.786 260.419C227.786 269.827 225.677 278.1 221.46 285.237C217.35 292.266 211.673 297.673 204.428 301.458C197.182 305.243 189.017 307.135 179.934 307.135ZM179.934 279.56C184.367 279.56 188.044 277.937 190.964 274.693C193.992 271.341 195.506 266.583 195.506 260.419C195.506 254.255 193.992 249.55 190.964 246.306C188.044 243.062 184.421 241.44 180.096 241.44C175.77 241.44 172.147 243.062 169.228 246.306C166.308 249.55 164.848 254.255 164.848 260.419C164.848 266.691 166.254 271.449 169.065 274.693C171.877 277.937 175.5 279.56 179.934 279.56ZM272.515 185.963V306H240.721V185.963H272.515ZM306.679 206.564C301.056 206.564 296.514 205.05 293.053 202.022C289.701 198.886 288.025 194.993 288.025 190.343C288.025 185.585 289.701 181.638 293.053 178.502C296.514 175.366 301.056 173.798 306.679 173.798C312.194 173.798 316.628 175.366 319.98 178.502C323.441 181.638 325.171 185.585 325.171 190.343C325.171 194.993 323.441 198.886 319.98 202.022C316.628 205.05 312.194 206.564 306.679 206.564ZM322.414 214.999V306H290.62V214.999H322.414ZM382.856 307.135C373.773 307.135 365.608 305.243 358.362 301.458C351.225 297.673 345.602 292.266 341.492 285.237C337.383 278.208 335.328 269.935 335.328 260.419C335.328 251.01 337.383 242.792 341.492 235.762C345.71 228.733 351.387 223.326 358.525 219.541C365.77 215.756 373.935 213.864 383.019 213.864C392.102 213.864 400.213 215.756 407.35 219.541C414.596 223.326 420.273 228.733 424.383 235.762C428.6 242.792 430.709 251.01 430.709 260.419C430.709 269.827 428.6 278.1 424.383 285.237C420.273 292.266 414.596 297.673 407.35 301.458C400.105 305.243 391.94 307.135 382.856 307.135ZM382.856 279.56C387.29 279.56 390.967 277.937 393.887 274.693C396.915 271.341 398.429 266.583 398.429 260.419C398.429 254.255 396.915 249.55 393.887 246.306C390.967 243.062 387.344 241.44 383.019 241.44C378.693 241.44 375.07 243.062 372.15 246.306C369.231 249.55 367.771 254.255 367.771 260.419C367.771 266.691 369.177 271.449 371.988 274.693C374.8 277.937 378.423 279.56 382.856 279.56Z" fill="white"/>
<rect y="68.3403" width="163.583" height="51.5608" rx="13.653" transform="rotate(-24.694 0 68.3403)" fill="#52BF90"/>
<path d="M48.6847 91.3894L37.1015 83.1626L33.6004 84.7725L38.7447 95.96L34.157 98.0696L21.2963 70.1007L30.9546 65.6596C33.1009 64.6727 35.0845 64.2156 36.9055 64.2883C38.7533 64.3487 40.3293 64.8428 41.6335 65.7706C42.9645 66.6862 43.9878 67.922 44.7033 69.478C45.5422 71.3024 45.7705 73.2125 45.3882 75.2083C45.0203 77.165 43.8598 78.9174 41.9066 80.4656L54.1577 88.8728L48.6847 91.3894ZM31.9165 81.1104L36.9871 78.7788C38.7041 77.9893 39.7945 76.9679 40.2583 75.7146C40.7488 74.449 40.661 73.0918 39.9949 71.6431C39.3287 70.1943 38.3813 69.2649 37.1527 68.8548C35.9118 68.4179 34.4194 68.6004 32.6755 69.4022L27.6049 71.7338L31.9165 81.1104ZM50.3711 60.1928C49.5394 60.5753 48.7124 60.6143 47.8899 60.31C47.0674 60.0056 46.465 59.4376 46.0826 58.6059C45.7001 57.7743 45.6611 56.9472 45.9654 56.1247C46.2698 55.3022 46.8378 54.6998 47.6695 54.3174C48.4743 53.9473 49.288 53.9144 50.1104 54.2187C50.9329 54.5231 51.5353 55.0911 51.9178 55.9228C52.3002 56.7545 52.3393 57.5815 52.0349 58.404C51.7306 59.2265 51.176 59.8228 50.3711 60.1928ZM53.9756 62.0943L64.1716 84.2682L59.5839 86.3777L49.3879 64.2038L53.9756 62.0943ZM63.5213 71.0142C62.4974 68.7874 62.0468 66.6058 62.1694 64.4693C62.3189 62.3205 62.9692 60.4127 64.1203 58.7458C65.2859 57.0398 66.8345 55.7427 68.7662 54.8545C70.51 54.0526 72.1862 53.7044 73.7948 53.8098C75.4178 53.876 76.8527 54.24 78.0995 54.9017L76.6191 51.6823L81.2471 49.5543L91.4431 71.7281L86.8152 73.8562L85.2978 70.5562C85.0009 71.9603 84.3421 73.3195 83.3214 74.6339C82.3007 75.9483 80.9318 77.0002 79.2148 77.7897C77.31 78.6656 75.3441 78.9846 73.3171 78.7466C71.2777 78.4818 69.3876 77.6933 67.6468 76.3812C65.9204 75.03 64.5452 73.241 63.5213 71.0142ZM81.7079 62.7491C81.0047 61.2199 80.0721 60.0399 78.9101 59.2092C77.7749 58.3661 76.5619 57.8838 75.271 57.7624C73.9801 57.641 72.7444 57.8516 71.564 58.3944C70.3835 58.9372 69.4192 59.7381 68.6712 60.7972C67.9107 61.8293 67.4676 63.0569 67.3419 64.4797C67.2306 65.8635 67.5266 67.3199 68.2297 68.8492C68.9329 70.3784 69.8583 71.5779 71.0058 72.4478C72.1801 73.3054 73.4189 73.8083 74.7222 73.9566C76.0399 74.0657 77.2755 73.855 78.4292 73.3246C79.6096 72.7818 80.5739 71.9808 81.322 70.9218C82.0701 69.8628 82.4936 68.628 82.5925 67.2175C82.7059 65.7678 82.4111 64.2783 81.7079 62.7491ZM98.2938 41.277C100.038 40.4752 101.76 40.1218 103.462 40.2171C105.19 40.2999 106.77 40.8735 108.202 41.9376C109.634 43.0018 110.812 44.5399 111.737 46.5521L117.751 59.631L113.204 61.7221L107.504 49.3272C106.592 47.3419 105.398 46.0543 103.924 45.4645C102.438 44.8478 100.837 44.9342 99.1197 45.7237C97.4026 46.5132 96.2811 47.679 95.7551 49.2209C95.2435 50.7237 95.4442 52.4677 96.3571 54.453L102.057 66.8478L97.4688 68.9574L87.2728 46.7835L91.8605 44.674L93.0263 47.2093C93.3581 45.9517 93.9836 44.8028 94.9028 43.7626C95.8489 42.71 96.9792 41.8815 98.2938 41.277ZM111.467 28.6383L116.457 26.3437L116.636 37.8645L113.416 39.3449L111.467 28.6383ZM141.565 49.1199C139.821 49.9218 138.109 50.3349 136.431 50.3593C134.766 50.3446 133.285 49.9857 131.987 49.2827C130.676 48.5528 129.685 47.5295 129.015 46.2127L133.764 44.0292C134.276 44.9312 135.082 45.5191 136.183 45.7928C137.299 46.0275 138.474 45.8611 139.708 45.2936C140.995 44.7014 141.877 44.0035 142.353 43.1999C142.843 42.357 142.909 41.5466 142.551 40.7686C142.168 39.9369 141.482 39.5049 140.492 39.4725C139.529 39.4279 138.078 39.5588 136.139 39.8655C134.266 40.1742 132.708 40.3545 131.464 40.4064C130.22 40.4583 129.006 40.2204 127.821 39.6928C126.662 39.1529 125.75 38.1586 125.084 36.7098C124.541 35.5293 124.397 34.2958 124.65 33.0093C124.891 31.6959 125.526 30.4614 126.555 29.3058C127.61 28.1379 128.983 27.1654 130.673 26.3882C133.195 25.2286 135.517 24.9411 137.638 25.5257C139.774 26.0711 141.401 27.4191 142.52 29.5697L137.933 31.6793C137.396 30.7236 136.629 30.1172 135.634 29.8601C134.638 29.6029 133.523 29.7581 132.289 30.3255C131.082 30.8807 130.261 31.5343 129.827 32.2865C129.392 33.0387 129.348 33.7903 129.693 34.5415C129.965 35.1318 130.408 35.5294 131.022 35.7345C131.636 35.9395 132.308 36.0209 133.036 35.9786C133.751 35.9095 134.793 35.7718 136.161 35.5654C137.968 35.2545 139.486 35.0927 140.715 35.08C141.959 35.0281 143.154 35.2587 144.3 35.7718C145.446 36.2849 146.359 37.2462 147.04 38.6558C147.619 39.9168 147.789 41.2039 147.548 42.5174C147.307 43.8308 146.672 45.0652 145.643 46.2208C144.641 47.364 143.282 48.3304 141.565 49.1199Z" fill="white"/>
</svg>
